<svg version="1.1" id="Layer_1" xmlns="http://www.w3.org/2000/svg" x="0" y="0" viewBox="0 0 538.7 177.4" xml:space="preserve"><style>.st4{fill:#fff}.st5{fill:#6e298d}</style><path fill="none" d="M-38.1-38.1h613.3v255.8H-38.1z"/><radialGradient id="SVGID_1_" cx="77.758" cy="44.946" r="64.716" gradientUnits="userSpaceOnUse"><stop offset="0" stop-color="#ccbbdb"/><stop offset=".5" stop-color="#6e298d"/><stop offset="1" stop-color="#400054"/></radialGradient><path d="M94 4.8c-3.2 0-6.2.3-9.2.8 24.4 4.4 42.9 25.7 42.9 51.3 0 25.6-18.5 46.9-42.9 51.3 3 .5 6.1.8 9.2.8 28.8 0 52.1-23.3 52.1-52.1S122.8 4.8 94 4.8z" fill="url(#SVGID_1_)"/><radialGradient id="SVGID_2_" cx="77.759" cy="44.946" r="64.716" gradientUnits="userSpaceOnUse"><stop offset="0" stop-color="#ccbbdb"/><stop offset=".5" stop-color="#6e298d"/><stop offset="1" stop-color="#400054"/></radialGradient><path d="M23.4 56.9c0-25.6 18.5-46.9 42.9-51.3-3-.5-6.1-.8-9.2-.8-28.8 0-52.2 23.3-52.2 52.1S28.2 109 57 109c3.2 0 6.2-.3 9.2-.8-24.3-4.4-42.8-25.7-42.8-51.3z" fill="url(#SVGID_2_)"/><radialGradient id="SVGID_3_" cx="77.758" cy="44.946" r="64.715" gradientUnits="userSpaceOnUse"><stop offset="0" stop-color="#ccbbdb"/><stop offset=".5" stop-color="#6e298d"/><stop offset="1" stop-color="#400054"/></radialGradient><path d="M30.6 56.9C30.6 32.1 50.7 12 75.5 12c24.8 0 44.9 20.1 44.9 44.9 0 24.8-20.1 44.9-44.9 44.9-24.8 0-44.9-20.1-44.9-44.9z" fill="url(#SVGID_3_)"/><g><path class="st4" d="M91 99.1c-.1 0-.2.1-.2.1.1-.1.2-.1.2-.1zM31.5 51.4c.1.5.2 1 .3 1.6.1.5.3 1.1.5 1.6.1.1.1.3.2.5.1.3.8 1.7 1.3.4 0-.1 0-.2.1-.3 0-.1 0-.2.1-.3 0-.1 0-.2.1-.3 0-.1 0-.2.1-.3-.2-.3-.4-.7-.6-1-.2-.3-.4-.7-.5-1-.2-.3-.3-.7-.4-1-.1-.3-.2-.7-.4-1-.4-1.5-.3-2.4-.2-2.9 0-.2.1-.3.1-.5s.1-.3.1-.5.1-.3.1-.5c.1-.2.1-.3.1-.5l-.1-.1s0-.1-.1-.1c0 0 0-.1-.1-.1 0 0 0-.1-.1-.1v-.1c-.4 1.3-.7 2.6-.9 4v.9c.1.6.2 1.1.3 1.6zM34 40.9c.2-.1.5-.3.8-.4.3-.1.6-.2.9-.4.3-.1.7-.2 1.1-.3 1.2-.4 2.1-1.2 2.6-2.4 0-.1.1-.2.1-.3 0-.1.1-.2.1-.3 0-.1.1-.2.1-.3 0-.1.1-.2.1-.3-.4.1-.7.3-1.1.4-.3.1-.7.3-1 .5-.3.2-.6.3-.9.5-.3.2-.6.3-.8.5-.7.5-1 .6-1.1.5v-.2c0-.1.1-.3.1-.4 0-.1.1-.3.1-.4 0-.1.1-.3.1-.4 0-.1.1-.3.1-.4-.1.1-.2.2-.2.3 0 .1-.1.1-.1.2-.6 1.3-1.2 2.7-1.8 4.1 0 0 .1 0 .1-.1.3-.1.5-.2.7-.4zM43.7 25.2v-.1-.1-.1c-1.5 1.5-3 3.2-4.3 4.9.4-.4.8-.9 1.2-1.3 2.6-2.5 2.8-2.8 3.1-3.3zM38 72.7c-.4-.5-.7-1-1-1.5-.3-.5-.7-1-1-1.5-1.1-1.9-1.5-3.5-1.3-4.8.1-.3.2-.5.2-.8.1-.3.2-.6.2-.9l.3-.9.3-.9c-.1-.1-.2-.3-.3-.4-.1-.1-.2-.3-.3-.4-.1-.1-.2-.3-.3-.4-.1-.1-.2-.3-.2-.4-1.2-1.9-1.6-1.6-1.8-1.1-.1.2-.1.5-.2.7-.1.2-.1.5-.2.7-.1.2-.1.4-.2.6-.1.2-.1.4-.2.6 0 .2.1.3.2.5s.1.3.2.5.1.3.2.5.1.3.2.5c.8 2.3 1.1 3.7 1 4.7 0 .1 0 .1-.1.2V68.8c.2.5.5 1.1.8 1.6.3.5.5 1.1.8 1.6.3.5.6 1.1.9 1.6.3.5.6 1.1 1 1.6 1.4 1.9 2.3 2.5 2.8 1.6 0-.1.1-.2.1-.3 0-.1.1-.2.1-.3 0-.1.1-.2.1-.3 0-.1.1-.2.1-.3l-1.2-1.5c-.5-.4-.8-.9-1.2-1.4zM45.4 48.8c-.5-.2-1-.3-1.4-.5-.5-.2-.9-.3-1.3-.5-2-1-2-2.5-1.7-3.6.1-.2.2-.5.2-.8.1-.2.2-.5.2-.8.1-.3.2-.5.2-.8.1-.3.2-.5.2-.8.1-.2.1-.3.2-.5s.1-.3.2-.5.1-.3.2-.5.1-.3.2-.5H41c-1.9.3-2.6 1.5-3 2.3-.1.3-.2.7-.3 1-.1.3-.2.7-.3 1-.1.3-.2.7-.3 1-.1.3-.2.7-.3 1 .1 0 .2.1.3.1.1 0 .2.1.3.1.1 0 .2.1.3.1.1 0 .2.1.3.1 1.3.7 1.7 1.8 1.4 3.4 0 .1-.1.3-.1.4 0 .1-.1.3-.1.4 0 .1-.1.3-.1.4 0 .1-.1.3-.1.4.4.2.7.4 1.1.7.4.2.8.5 1.2.7.4.2.8.5 1.3.7.4.2.9.5 1.3.7 1.9.8 3.2.2 4.1-1.8.1-.2.1-.3.2-.5s.1-.3.2-.5.1-.4.2-.5c.1-.2.1-.3.2-.5-.5-.2-1.1-.4-1.6-.5-.8-.1-1.3-.3-1.8-.4zM53.5 23.4c-.6.2-1.2.4-1.7.6-.6.2-1.1.4-1.7.7-2.6 1-2.8.6-2.7 0 .1-.2.2-.4.2-.7.1-.2.2-.4.2-.6.1-.2.1-.4.2-.6.1-.2.1-.4.2-.5-.2.1-.3.2-.5.3-.2.1-.3.2-.5.3-.2.1-.3.2-.5.3-.2.1-.3.2-.5.3-2.3 1.7-3 2.8-3.3 3.3-.1.2-.1.3-.2.5s-.1.3-.2.5-.1.4-.2.6c-.1.2-.1.4-.2.6.1-.1.3-.2.4-.3.1-.1.3-.2.4-.3.1-.1.3-.2.4-.3.1-.1.3-.2.4-.3 2.2-1.3 2.5-.8 2.4-.1 0 .1-.1.2-.1.3 0 .1-.1.2-.1.3 0 .1-.1.2-.1.3 0 .1-.1.2-.1.3l1.5-.6c.5-.2 1-.4 1.6-.6.5-.2 1.1-.4 1.6-.5.6-.2 1.1-.3 1.7-.5 2.3-.7 3.8-1.7 4.4-3.1 0-.1.1-.2.1-.3 0-.1.1-.2.1-.3 0-.1.1-.2.1-.3 0-.1.1-.2.1-.3-.6.1-1.2.3-1.8.5-.4.1-1 .3-1.6.5zM51.6 94.6c0-.1 0-.1 0 0 .1-.1.1-.1.1-.2 0 0 0-.1.1-.1 0 0 0-.1.1-.1-.6-.4-1.1-.7-1.7-1.1-.6-.4-1.1-.8-1.6-1.2-.5-.4-1.1-.8-1.6-1.2-.5-.4-1-.9-1.5-1.3-1.8-1.7-2.6-2.9-2.6-3.7.1-.2.1-.3.2-.5s.1-.4.2-.6c.1-.2.2-.4.2-.7.1-.2.2-.5.3-.7l-.4-.4-.4-.4-.4-.4c-.1-.2-.3-.3-.4-.5-2.2-2.3-2.8-2.1-3-1.7-.1.3-.2.5-.2.7-.1.2-.1.4-.2.6-.1.2-.1.3-.2.5 0 .1-.1.3-.1.4 0 .1.1.3.1.4 3.2 4.6 7.2 8.6 11.8 11.7.5.4 1 .5 1.2.5zM56.2 72.3c-.6-.3-1.3-.7-1.9-1-.6-.3-1.2-.7-1.8-1-2.2-1.5-3-3.2-2.5-5.5.2-.5.4-1.1.5-1.7.2-.6.4-1.1.6-1.7.2-.6.4-1.2.6-1.7l.6-1.8c-.2-.1-.4-.2-.5-.2-.2-.1-.4-.2-.5-.2-.2-.1-.4-.2-.5-.2-.2-.1-.4-.2-.5-.2-2.1-.7-3.6-.2-4.4 1.7-.2.5-.3 1-.5 1.5s-.3 1-.5 1.5-.3 1-.5 1.5-.3 1-.5 1.4c.2.1.3.2.4.3.2.1.3.2.5.3.2.1.3.2.5.3.2.1.3.2.5.3 1.9 1.6 2.7 3.4 2.2 5.3 0 .2-.1.3-.1.5 0 .1-.1.3-.1.4 0 .1-.1.3-.1.4 0 .1-.1.3-.1.4.5.4 1.1.8 1.6 1.2.6.4 1.1.8 1.7 1.1.6.4 1.2.7 1.8 1.1.6.4 1.2.7 1.8 1.1 2.5 1.2 4.2.8 5.2-1.2.1-.2.1-.3.2-.5s.1-.4.2-.5c.1-.2.1-.4.2-.5.1-.2.1-.4.2-.5-.7-.3-1.3-.6-2-.9-1.1-.3-1.7-.6-2.3-1zM67.9 35.4l-2.1-.3-2.1-.3c-2.5-.5-3.5-1.7-3.1-3.7.2-.5.3-1 .5-1.5s.3-1 .4-1.5c.1-.5.3-1 .4-1.4.1-.5.3-.9.4-1.3h-1.2c-.2 0-.4 0-.6.1-.2 0-.4 0-.6.1-2.4.4-4 1.4-4.7 3.1-.1.4-.3.9-.4 1.3-.1.5-.3.9-.4 1.4-.1.5-.3 1-.4 1.4-.2.5-.3 1-.5 1.5h2.4c2.4.3 3.3 1.5 2.8 3.8-.1.2-.1.4-.2.6-.1.2-.1.4-.2.6-.1.2-.1.4-.2.6-.1.2-.1.4-.2.6.6.1 1.3.2 1.9.3.7.1 1.3.2 2 .4.7.1 1.4.2 2 .4.7.1 1.4.3 2.1.4 2.8.3 4.7-.7 5.7-3.2.1-.2.1-.4.2-.6.1-.2.1-.4.2-.6.1-.2.1-.4.2-.6.1-.2.1-.4.2-.6-.7-.1-1.5-.3-2.2-.4-.9-.4-1.6-.5-2.3-.6zM70.7 93.9c-.6-.1-1.2-.3-1.8-.5-.6-.2-1.2-.4-1.8-.5-.1 0-.2-.1-.3-.1-.1 0-.2-.1-.3-.1-.1 0-.2-.1-.3-.1-.1 0-.2-.1-.3-.1-2.6-1.1-3.7-2.4-3.2-4.1.2-.4.4-.8.6-1.3.2-.4.4-.9.6-1.4l.6-1.5.6-1.5c-.2-.1-.4-.2-.7-.3-.2-.1-.4-.2-.7-.3-.2-.1-.4-.2-.7-.3-.2-.1-.4-.2-.7-.3-2.6-.9-4.4-.6-5.3 1.1-.2.5-.3.9-.5 1.3s-.3.9-.5 1.3-.3.8-.5 1.2c-.2.4-.3.8-.5 1.1l.6.3.6.3.6.3.6.3c2.4 1.4 3.4 2.7 3.1 4 0 .1-.1.2-.1.3 0 .1-.1.2-.1.3 0 .1-.1.2-.1.3 0 .1-.1.2-.1.3.4.2.9.4 1.3.6.4.2.9.3 1.3.5.5.2.9.3 1.4.5.5.2.9.3 1.4.5.2.1.5.1.7.2.2.1.5.1.7.2.2.1.5.1.7.2.2.1.5.1.7.2 2.7.6 4.5.3 5.4-.9.1-.1.1-.2.2-.3.1-.1.1-.2.2-.3.1-.1.1-.2.2-.3.1-.1.1-.2.2-.3-.6-.1-1.2-.2-1.8-.4-.8-.1-1.4-.3-2-.4zM83.5 61.3c-.6-.2-1.3-.4-1.9-.6-.6-.2-1.3-.4-1.9-.6-.1 0-.2-.1-.3-.1-.1 0-.2-.1-.3-.1-.1 0-.2-.1-.3-.1-.1 0-.2-.1-.3-.1-2.8-1.2-3.9-3.1-3.3-6.1.1-.4.3-.9.4-1.3.1-.4.3-.9.4-1.3.1-.4.3-.9.4-1.3.1-.4.3-.9.4-1.3l.3-.9.3-.9.3-.9.3-.9c-.2-.1-.5-.1-.7-.2-.2-.1-.5-.1-.7-.2-.2-.1-.5-.1-.7-.2-.2-.1-.5-.1-.7-.2-2.9-.5-4.8.6-5.9 3.3-.2.7-.4 1.4-.7 2.2-.2.7-.4 1.4-.7 2.2-.2.7-.5 1.4-.7 2.1-.2.7-.4 1.4-.7 2.1.2.1.4.1.7.2.2.1.5.1.7.2.2.1.5.1.7.2.2.1.5.2.7.2 2.7 1.2 3.8 3.1 3.1 6-.1.2-.1.4-.2.7-.1.2-.1.4-.2.7-.1.2-.1.4-.2.7-.1.2-.1.4-.2.7.5.2 1 .3 1.5.5s1 .3 1.5.5 1 .3 1.5.5 1 .3 1.5.5c.3.1.5.2.8.2.3.1.5.2.8.2.3.1.5.2.7.2.3.1.5.2.8.2 2.9.6 4.9-.4 6.1-3.1.1-.2.1-.4.2-.7.1-.2.1-.4.2-.7.1-.2.1-.4.2-.7.1-.2.1-.5.2-.7l-1.8-.6c-1.1-.1-1.7-.3-2.3-.5zM92.8 25.2c-.6-.2-1.2-.4-1.8-.7l-1.8-.6c-.1 0-.2-.1-.3-.1-.1 0-.2-.1-.3-.1-.1 0-.2-.1-.3-.1-.1 0-.2-.1-.3-.1-2.7-1-4-2.1-4.1-3.7.1-.4.1-.7.2-1.1 0-.3.1-.7.1-1 0-.3.1-.6.1-.9 0-.3.1-.6.1-.8-.2 0-.4-.1-.7-.1-.2 0-.4-.1-.7-.1-.2 0-.4-.1-.7-.1-.2 0-.4-.1-.7-.1-2.7-.3-4.2.1-4.7 1.3-.1.3-.1.6-.2 1-.1.3-.1.7-.2 1-.1.4-.2.7-.2 1.1l-.3 1.2c.2 0 .5 0 .7.1.2 0 .4.1.7.1.2 0 .5.1.7.1.2 0 .5.1.7.1 2.8.6 4 1.8 3.9 3.7 0 .1-.1.3-.1.5s-.1.3-.1.5-.1.3-.1.5-.1.3-.1.5c.5.1 1 .2 1.5.4.5.1 1 .3 1.5.4.5.1 1 .3 1.5.4.5.1 1 .3 1.5.5.2.1.5.2.7.2.2.1.5.2.7.2.2.1.5.2.7.2.2.1.5.2.7.3 2.7.8 4.3.3 4.8-1.3 0-.1 0-.3.1-.4 0-.1 0-.3.1-.4 0-.1 0-.3.1-.4 0-.1 0-.3.1-.4-.6-.3-1.1-.5-1.7-.7-.6-.7-1.2-.9-1.8-1.1zM88.1 100c-.6.2-1.2.3-1.8.5-.6.1-1.2.3-1.9.4-.6.1-1.3.2-1.9.3-.6.1-1.3.2-1.9.2-2.1.1-3.1 0-3.3-.4 0-.1.1-.1.1-.2l.5-.5c.2-.2.3-.4.5-.6.2-.2.3-.4.5-.6.2-.2.3-.5.5-.7H77c-2.7-.1-4.4.2-5.3.9-.2.3-.4.5-.6.7-.2.2-.4.4-.5.6-.2.2-.3.3-.5.4-.2.1-.3.2-.5.4.1.1.2.1.4.1 1.9.2 3.8.4 5.7.4 4.3 0 8.5-.6 12.4-1.7-.1-.2-.1-.2 0-.2zM95.2 83.3c-.6 0-1.2-.1-1.8-.1-.6 0-1.2-.1-1.9-.1-2.4-.5-3.3-1.8-2.6-4.1.2-.6.5-1.2.7-1.8.2-.6.5-1.2.7-1.9.2-.6.5-1.3.7-1.9.2-.6.5-1.3.7-2-.2-.1-.4-.1-.6-.2-.2 0-.4-.1-.6-.2-.2-.1-.4-.1-.6-.2-.2-.1-.4-.1-.6-.2-2.8-.4-4.7.6-5.9 3-.2.7-.5 1.3-.7 2-.2.6-.5 1.3-.7 1.9-.2.6-.5 1.2-.7 1.8-.2.6-.5 1.2-.7 1.8.2.1.5.1.7.2.2.1.5.1.7.1.2 0 .4.1.7.1.2 0 .4.1.7.1 2.6.7 3.5 2 2.8 4.1-.1.2-.1.3-.2.5s-.1.3-.2.5-.1.3-.2.5-.1.3-.2.5c.7.1 1.3.1 2 .2.7 0 1.3.1 2 .1.6 0 1.3 0 1.9.1h1.9c2.4-.2 4-1.2 5-3 .1-.1.1-.3.2-.4.1-.1.1-.3.2-.4.1-.2.1-.3.2-.5s.1-.3.2-.5h-3.8zM106.5 48.7c-.5-.3-1-.6-1.6-.9-.5-.3-1.1-.6-1.6-.9-2.2-1.4-3.1-3.3-2.8-5.7.1-.6.3-1.2.4-1.7.1-.6.2-1.1.3-1.7.1-.6.2-1.1.3-1.6l.3-1.5-.6-.3-.6-.3-.6-.3-.6-.3c-3.7-1.6-4.4.7-4.7 1.5-.1.6-.3 1.1-.4 1.7-.1.6-.3 1.2-.4 1.8-.1.6-.3 1.2-.4 1.9-.2.6-.3 1.3-.5 1.9l.6.3.6.3.6.3.6.3c2.4 1.3 3.4 3.2 3 5.9-.1.2-.1.4-.2.6-.1.2-.1.4-.2.6-.1.2-.1.4-.2.7-.1.2-.1.4-.2.7.6.3 1.2.5 1.8.8.6.3 1.2.5 1.8.8.6.3 1.1.5 1.7.8.5.3 1.1.5 1.6.8 2 .7 3.3.1 4.1-2.1 0-.2.1-.4.1-.5 0-.2.1-.4.1-.5 0-.2.1-.4.1-.5 0-.2.1-.4.1-.5-.5-.3-.9-.6-1.4-.9-.1-.9-.6-1.2-1.1-1.5zM111.2 29.5v-.2c-.3-.3-.5-.6-.8-1 .2.5.5.8.8 1.2z"/><path class="st4" d="M96.5 17.5c0 .1.1.3.1.5l.6.3.6.3.6.3.6.3c2.2 1.3 3.4 2.5 3.8 3.5v.8c.6.4 1.1.8 1.6 1.2.5.4 1 .8 1.6 1.2.5.4 1 .8 1.5 1.3.5.4.9.9 1.4 1.3 1.3 1.2 1.9 1.7 2.4 1.7l.1-.1v-.2-.2-.2-.2c-.3-.4-.6-.7-.9-1.1-.1-.2-.3-.3-.4-.5-.4-.5-.9-.9-1.3-1.4-.5-.4-.9-.9-1.4-1.3-.5-.4-1-.9-1.5-1.3-1.7-1.5-2.8-2.4-3.3-3.1-1.9-1.4-3.9-2.7-6-3.8v.1c-.1.4-.1.5-.1.6zM93.9 94.4c.2 0 .4-.1.5-.1.2 0 .4-.1.5-.1 2.7-.6 2.7-.1 2.3.5l-.2.2-.2.2-.2.2-.2.2c.5-.2 1.1-.5 1.6-.7.5-.2 1.1-.5 1.6-.8.5-.3 1-.5 1.5-.8l1.5-.9c1.7-1.1 2.9-2.2 3.7-3.1 0-.1.1-.1.1-.2s.1-.1.1-.2.1-.1.1-.2.1-.1.1-.2c-.4.3-.8.6-1.3.9-.4.3-.9.6-1.3.9-.5.3-.9.5-1.4.8-.5.3-1 .5-1.4.7l-.6.3c-.7.2-2.1.7-1.5-.7.2-.3.4-.6.6-1 .2-.3.4-.7.6-1 .2-.3.4-.7.6-1.1.2-.4.4-.7.6-1.1-.2 0-.3.1-.5.1s-.3.1-.5.1-.3.1-.5.1-.3.1-.5.1c-2.2.5-3.7 1.5-4.7 3-.2.4-.4.8-.6 1.1-.2.4-.4.7-.6 1.1-.2.3-.4.7-.6 1l-.6.9c.2 0 .4-.1.6-.1.5-.1.7-.1.8-.1zM113.7 70.1c-.3-.1-.6-.2-1-.2-.3-.1-.7-.2-1-.3-1.4-.6-1.8-1.9-1.3-4 .1-.3.2-.7.3-1 .1-.3.2-.7.3-1 .1-.3.2-.7.3-1 .1-.3.2-.7.3-1 .1-.2.1-.5.2-.7.1-.2.1-.5.2-.7.1-.2.1-.4.2-.7.1-.2.1-.4.2-.7-.1-.1-.2-.2-.4-.2-.1-.1-.2-.2-.4-.2-.1-.1-.2-.2-.4-.2-.1-.1-.3-.2-.4-.2-1.7-.8-3 0-3.8 2.3-.2.6-.4 1.3-.5 1.9-.2.6-.4 1.2-.6 1.9l-.6 1.8-.6 1.8c.2 0 .3.1.5.1s.3.1.5.1.3.1.5.1.3.1.5.1c1.7.7 2.2 2 1.7 4.1-.1.2-.1.3-.2.5s-.1.3-.2.5-.1.3-.2.5-.1.3-.2.5c.4 0 .9.1 1.3.1s.8.1 1.2.1h2.1c1.6-.2 2.4-1.5 2.8-2.5 0-.1.1-.2.1-.4 0-.1.1-.2.1-.4 0-.1.1-.2.1-.4 0-.1.1-.3.1-.4-.2-.1-.5-.1-.8-.2-.3.2-.6.1-.9 0zM118.5 47.4c-.2-.5-.4-.9-.7-1.4-.2-.5-.5-.9-.8-1.4-1.1-2-1.7-3.6-1.8-4.9v-.9-.8c0-.3 0-.5-.1-.8 0-.3 0-.5-.1-.7-.1-.2-.2-.3-.3-.5-.1-.2-.2-.3-.3-.5-.1-.2-.2-.3-.3-.5-.1-.2-.2-.3-.3-.5-1.1-1.4-1.6-1.8-2.1-1.8-.1.1-.2.3-.2.5v2.9c0 .4 0 .7-.1 1.1l.4.4.4.4.4.4.4.4c1.4 1.8 2 3.4 2 5.1v1.6c.3.4.7.8 1 1.2.3.4.6.8.9 1.3.3.4.5.8.8 1.3.2.4.5.8.7 1.3.1.3.3.6.5.9.7.9.8.3.8-.1v-.3-.3-.3-.3c-.2-.5-.3-1-.5-1.4-.3-.5-.5-1-.7-1.4zM114.8 78.1c-.1-.2-.1-.3.1-.8.1-.3.2-.5.4-.8.1-.3.2-.6.3-.8l.3-.9.3-.9c-.1 0-.1 0-.2.1-.1 0-.1 0-.2.1-.1 0-.1 0-.2.1h-.2c-1 .3-1.8 1.2-2.4 2.5-.1.4-.3.7-.4 1.1-.1.3-.3.7-.4 1-.1.3-.3.7-.4 1-.1.3-.3.7-.5 1 .1-.1.2-.1.3-.2.1-.1.2-.1.3-.2.1-.1.2-.1.3-.2.1-.1.2-.1.3-.2l.6-.3c.7-.2.5.3.3.6 0 .1-.1.2-.1.2 0 .1-.1.1-.1.2s-.1.1-.1.2-.1.1-.1.2c.3-.3.5-.5.7-.8.1-.1.1-.2.2-.3.5-.8 1-1.7 1.4-2.6-.2.6-.3.7-.5.7zM120.5 57.3zM120.4 56.9c0-.1 0-.3-.1-.4 0-.1 0-.3-.1-.4 0-.1-.1-.3-.1-.4-.3-1-.4-1.3-.7-1.3-.2.2-.2.3-.3.7 0 .3-.1.7-.2 1-.1.3-.1.7-.2 1-.1.4-.1.7-.2 1.1-.1.4-.1.7-.2 1.1.1.1.1.2.2.3.1.1.1.2.2.3 0 .1.1.2.1.3 0 .1.1.2.1.3.3.7.6 1.8.3 3.6 0 .1 0 .2-.1.3 0 .1 0 .2-.1.3 0 .1 0 .2-.1.3 0 .1 0 .2-.1.3l.3.6c.1.2.1.4.2.5v.1c.2-1 .4-1.9.5-2.9-.1-1.7 0-2.4 0-3.1 0-.3.1-.6.1-.8 0-.3.1-.5.1-.8 0-.3.1-.5.1-.8 0-.2.1-.5.1-.7.2-.3.2-.4.2-.5zM33.2 70.7c0-.1.1-.3.1-.4 0-.2.1-.3.1-.5s.1-.3.1-.5.1-.4.1-.6c-.1-.2-.1-.3-.2-.5s-.1-.4-.2-.5c-.1-.2-.1-.3-.2-.5s-.1-.3-.2-.5c-.9-2.5-.9-3.9-.8-4.6v-.2-.2-.2-.2c-.2-.5-.3-1-.4-1.6-.1-.5-.3-1-.4-1.6l-.3-1.5c-.1-.5-.1-1-.2-1.5-.1-.8-.1-1.3-.2-1.7-.1 1-.1 1.9-.1 2.9 0 .5.1 1 .1 1.6.1.6.1 1.1.2 1.7.4 2.5.6 3.7.5 4.4 0 .1-.1.3-.1.4 0 .1 0 .2-.1.4v.2c.2 1.3.6 2.7.9 4 .6.8.9 1.6 1.3 1.7-.1 0 0 0 0 0zM38.1 50.6c-.1-.1-.2-.1-.3-.2-.1-.1-.2-.1-.3-.2-1.5-1.2-1.4-2.5-1.2-3.3 0-.1.1-.2.1-.3 0-.1.1-.2.1-.3 0-.1.1-.2.1-.3 0-.1.1-.2.1-.3-.3-.1-.6-.2-.8-.3-.3-.1-.5-.2-.7-.3-.2-.1-.5-.2-.7-.3l-.6-.3c-.8-.2-1.1.2-1.2.6v.2s0 .1-.1.2v.4c.1.2.2.3.3.5.1.2.3.3.4.5l.5.5c.2.2.4.4.6.5.3.3 1.2 1.3.9 3.2l-.3.9-.3.9-.3.9-.3.9c.1.1.1.2.2.3.1.1.1.2.2.3.1.1.2.2.2.3.1.1.2.2.2.3 1.1 1.3 1.9 1.2 2.4-.1.1-.4.2-.8.3-1.1l.3-1.2c.1-.4.2-.8.4-1.2.1-.4.2-.8.4-1.2-.1-.1-.2-.1-.3-.2-.1-.2-.2-.3-.3-.3zM45 29.4c-.1.1-.3.1-.4.2-.1.1-.3.1-.4.2-2.1 1-2.3.6-2.2.1 0-.1.1-.1.1-.2s0-.1.1-.2c0-.1 0-.1.1-.2 0-.1 0-.1.1-.2-.4.3-.8.6-1.2 1-.4.3-.8.7-1.2 1l-1.1 1.1c-.4.4-.7.7-1 1.1-1.4 1.7-2 2.7-2.1 3.1v.4c.3-.3.5-.7.8-1 .3-.3.6-.6.9-1l.9-.9c.3-.3.7-.6 1-.9.1-.1.3-.2.4-.3.3-.2 1.7-1.1 1.4.2-.1.3-.2.5-.3.8-.1.3-.2.6-.3.8l-.3.9-.3.9c.1 0 .2-.1.4-.1.1 0 .2-.1.4-.1.1 0 .2-.1.4-.1.1 0 .2-.1.4-.1 1.7-.6 2.8-1.6 3.4-2.9.1-.4.2-.7.3-1 .1-.3.2-.7.3-1 .1-.3.2-.6.3-1l.3-.9c-.2.1-.3.1-.5.2-.4-.1-.6 0-.7.1zM46.3 72.3c-.2-.1-.3-.3-.5-.4-.2-.1-.3-.3-.5-.4-1.8-1.7-2.5-3.4-2.1-5.3 0-.1.1-.3.1-.4 0-.1.1-.3.1-.4 0-.1.1-.3.1-.4.1-.1.1-.3.1-.4-.5-.4-.9-.7-1.4-1.1-.4-.4-.9-.7-1.3-1.1-.4-.4-.8-.7-1.2-1.1-.4-.4-.8-.7-1.1-1.1-1.8-1.6-2.4-.8-2.7-.1 0 .1-.1.2-.1.3 0 .1-.1.2-.1.3 0 .1-.1.2-.1.3 0 .1-.1.2-.1.3.3.4.6.8.9 1.3.3.4.6.9 1 1.3.3.4.7.8 1.1 1.3.4.4.7.8 1.1 1.3 1.5 1.8 2.1 3.5 1.8 5.1-.1.4-.2.8-.3 1.1-.1.4-.2.7-.3 1.1-.1.3-.2.7-.3 1-.1.3-.2.6-.3 1 .1.2.3.3.4.5.1.2.3.3.4.4.1.2.3.3.4.4l.4.4c1.8 1.7 3 1.9 3.7.6.1-.4.3-.8.4-1.2.1-.4.3-.8.4-1.2.1-.4.3-.8.4-1.3.1-.4.3-.9.4-1.3-.2-.1-.3-.2-.5-.4 0-.1-.1-.3-.3-.4zM56.6 40.1c-.2 0-.4-.1-.6-.1-.2 0-.4-.1-.6-.1-2.2-.5-3.1-1.8-2.7-3.8.1-.2.1-.3.2-.5s.1-.3.2-.5.1-.3.2-.5c0-.2.1-.3.1-.5h-1.7c-.6 0-1.1 0-1.7.1-.5 0-1.1.1-1.6.1-.5.1-1 .1-1.5.2-1.9.4-3.1 1.4-3.8 2.9 0 .1-.1.3-.1.4 0 .1-.1.3-.1.4 0 .1-.1.3-.1.4 0 .1-.1.3-.1.4h2.7c.5 0 1 0 1.5.1.5 0 1 0 1.5.1 2 .3 2.8 1.6 2.3 3.8-.2.6-.4 1.1-.5 1.7-.2.6-.4 1.1-.5 1.7-.2.6-.4 1.1-.5 1.7-.2.6-.4 1.1-.5 1.7.2.1.3.1.5.2s.3.1.5.2.3.1.5.2.3.1.5.2c2.3.5 3.9-.3 4.9-2.7.1-.4.2-.7.4-1.1.1-.4.2-.8.4-1.1.1-.4.2-.8.4-1.1.1-.4.2-.8.4-1.1.1-.3.2-.5.2-.8.1-.3.2-.5.2-.8.1-.3.2-.5.2-.8.1-.3.2-.5.2-.8-.2 0-.4-.1-.6-.1-.4 0-.6 0-.8-.1zM63.8 16.1c-.2 0-.4.1-.6.1-.2 0-.4.1-.6.1-2.1.4-3.1.5-3.6.1v-.2s0-.1.1-.1V16v-.1-.1c-.6.2-1.2.5-1.8.7-.6.2-1.2.5-1.8.8-.6.3-1.2.5-1.7.8-.6.3-1.1.6-1.7.9-2.5 1.4-3.4 2.3-3.7 2.9 0 0 0 .1-.1.1 0 0 0 .1-.1.1 0 0 0 .1-.1.1 0 .1 0 .1-.1.2.5-.3 1-.7 1.6-1 .5-.3 1.1-.6 1.6-.9.6-.3 1.1-.6 1.7-.8.6-.3 1.2-.5 1.7-.8 2.3-.9 3.4-.9 3.3 0-.1.2-.2.5-.2.8-.1.3-.2.5-.3.8l-.3.9c-.1.3-.2.6-.3 1 .2 0 .4-.1.6-.1.2 0 .4-.1.6-.1.2 0 .4-.1.6-.1.2 0 .4-.1.6-.1 2.5-.6 4.1-1.5 4.7-2.8l.3-.9c.1-.3.2-.6.2-.8.1-.3.1-.5.2-.8.1-.2.1-.5.2-.7-.2 0-.4.1-.6.1 0-.1-.2 0-.4 0zM58.7 93.5l-.6-.3-.6-.3c-2.3-1.3-3.3-2.6-3-4 0-.1.1-.2.1-.3 0-.1.1-.2.1-.3 0-.1.1-.2.1-.3 0-.1.1-.2.1-.3-.6-.4-1.2-.7-1.8-1.1-.6-.4-1.2-.8-1.8-1.1-.6-.4-1.2-.8-1.7-1.2-.6-.4-1.1-.8-1.6-1.2-2.1-1.5-3.3-1.7-3.9-.8 0 .1-.1.2-.1.3 0 .1-.1.2-.1.3 0 .1-.1.2-.1.2 0 .1-.1.2-.1.2.5.5 1 .9 1.5 1.4.5.4 1 .9 1.5 1.3s1 .9 1.6 1.3c.5.4 1.1.8 1.7 1.2 2.1 1.6 3.1 2.9 2.9 3.9l-.3.6c-.1.2-.2.4-.3.5-.1.2-.2.3-.3.4-.1.1-.2.2-.2.4.2.1.4.2.5.3.2.1.4.2.5.3.2.1.4.2.5.3l.6.3c2.3 1.2 3.8 1.6 4.4 1.1.1-.2.2-.3.3-.5.1-.2.2-.4.4-.6.1-.2.3-.4.4-.7.1-.2.3-.5.4-.8l-.6-.3c-.1 0-.3-.1-.5-.2zM69.8 64.9c-.2-.1-.5-.2-.7-.2-.2-.1-.5-.2-.7-.2-2.7-1.2-3.6-3.1-3-5.9.1-.2.1-.4.2-.7.1-.2.1-.4.2-.7.1-.2.1-.4.2-.7.1-.2.1-.4.2-.7-.7-.2-1.4-.5-2.1-.7-.7-.2-1.4-.5-2.1-.7-.7-.2-1.4-.5-2-.7-.7-.2-1.3-.4-2-.7-2.5-.6-4.2.3-5.1 2.5-.1.2-.1.4-.2.6-.1.2-.1.4-.2.6-.1.2-.1.4-.2.6-.1.2-.1.4-.2.6.6.3 1.2.5 1.8.8.6.3 1.2.5 1.9.8.6.3 1.3.5 1.9.8.6.3 1.3.5 2 .8 2.5 1.3 3.5 3.2 2.9 5.8-.2.6-.4 1.3-.7 1.9-.2.6-.4 1.3-.6 1.9l-.6 1.8-.6 1.8.6.3.6.3.6.3c.2.1.4.2.7.3 2.8.9 4.7.2 5.8-2.1.2-.6.5-1.3.7-1.9.2-.6.5-1.3.7-2 .2-.7.5-1.3.7-2 .2-.7.5-1.4.7-2.1-.2-.1-.5-.2-.7-.2-.2-.2-.4-.3-.7-.3zM81 26.7c-.2-.1-.5-.1-.7-.1-.2 0-.5-.1-.7-.1-2.7-.7-4-1.9-3.8-3.7 0-.1.1-.3.1-.4 0-.1.1-.3.1-.4 0-.1.1-.3.1-.4 0-.1.1-.3.1-.4-.8-.1-1.5-.2-2.2-.2-.7 0-1.4-.1-2.1-.1h-4.2c-2.6.3-4.2 1.2-4.9 2.8 0 .1-.1.3-.1.4 0 .1-.1.3-.1.4 0 .1-.1.3-.1.4 0 .1-.1.3-.1.4.7 0 1.3-.1 2-.1h4.1c.7 0 1.4.1 2.1.1 2.7.4 3.9 1.6 3.6 3.7-.1.5-.3 1.1-.5 1.7-.2.6-.3 1.2-.5 1.7-.2.6-.3 1.2-.5 1.8-.2.6-.3 1.2-.5 1.9.2 0 .5.1.7.1.2 0 .5.1.7.1.2 0 .5.1.7.1.2 0 .5.1.7.1 2.9.4 4.8-.5 5.7-2.8.2-.6.3-1.2.5-1.8.1-.6.3-1.2.4-1.7.1-.6.3-1.1.4-1.7.1-.5.3-1.1.4-1.6-.2-.1-.5-.1-.7-.2-.2.1-.5.1-.7 0zM59.3 15.4c0 .1-.1.2-.1.4.2-.1.4-.1.6-.2.2-.1.4-.1.6-.2.2-.1.4-.1.6-.2.2-.1.4-.1.6-.2 2.4-.6 3.6-.6 3.7.1v.2c0 .1 0 .1-.1.2 0 .1 0 .1-.1.2 0 .1 0 .1-.1.2.7-.1 1.3-.2 2-.3.7-.1 1.3-.2 2-.2.7-.1 1.4-.1 2-.2.7 0 1.4-.1 2.1-.1 2.7-.1 4.2-.5 4.5-1.3v-.2-.2-.2-.2c-.7 0-1.4-.1-2-.1h-2c-.7 0-1.3.1-2 .1s-1.3.1-2 .2c-2.5.3-3.8.2-3.9-.1v-.2c-2.1.5-4.2 1.1-6.2 1.9 0 .1 0 .1-.1.2-.1.2-.1.3-.1.4z"/><path class="st4" d="M67.7 12.6c.4 0 .9-.1 1.6-.2.8-.1 1.6-.2 2.5-.2.8-.1 1.7-.1 2.5-.1h2.5c.3 0 .6 0 .9.1v.9h1.2c.2 0 .4 0 .6.1.2 0 .4 0 .6.1 2.7.2 4 .2 4.2-.2 0-.1 0-.2-.1-.3-2.9-.6-5.8-.9-8.9-.9-2.5 0-5.1.3-7.6.7zM83.8 87.7c-.2 0-.4-.1-.6-.1-.2 0-.4-.1-.7-.1-2.6-.6-3.6-2-3-4.1.1-.2.1-.4.2-.5.1-.2.1-.4.2-.5.1-.2.1-.4.2-.5.1-.2.1-.4.2-.5-.6-.1-1.2-.3-1.8-.4-.6-.2-1.2-.3-1.9-.5-.6-.2-1.3-.4-1.9-.5-.6-.2-1.3-.4-1.9-.6-.1 0-.2-.1-.3-.1-.1 0-.2-.1-.3-.1-.1 0-.2-.1-.3-.1-.1 0-.2-.1-.3-.1-2.9-.7-4.8-.1-5.9 2-.1.2-.1.3-.2.5s-.1.3-.2.5-.1.3-.2.5-.1.3-.2.5c.5.2.9.4 1.4.5.5.2 1 .4 1.4.5.5.2 1 .3 1.5.5s1 .3 1.5.5c.2.1.5.2.7.2.2.1.5.1.7.2.2.1.5.1.7.2.2.1.5.1.7.2 2.7.9 3.7 2.2 3.1 4.1-.2.5-.4.9-.6 1.3-.2.4-.4.9-.6 1.3l-.6 1.2c-.2.4-.4.8-.6 1.1.2 0 .4.1.7.1.2 0 .4.1.7.1.2 0 .4.1.7.1.2 0 .4.1.7.1 2.7.2 4.5-.4 5.5-1.9l.6-1.2c.2-.4.4-.8.6-1.3.2-.4.4-.9.7-1.4.2-.5.4-.9.7-1.4-.2 0-.4 0-.6-.1-.3-.2-.5-.2-.7-.2zM96.7 51.2c-.2-.1-.4-.2-.6-.2l-.6-.3c-2.5-1.3-3.5-3.2-3.1-6 .1-.2.1-.4.2-.6.1-.2.1-.4.2-.6.1-.2.1-.4.2-.6.1-.2.1-.4.2-.6-.6-.2-1.2-.5-1.8-.7-.6-.2-1.2-.4-1.8-.7-.6-.2-1.2-.4-1.9-.6-.6-.2-1.3-.4-1.9-.6-.1 0-.2-.1-.3-.1-.1 0-.2-.1-.3-.1-.1 0-.2-.1-.3-.1-.1 0-.2-.1-.3-.1-3-.6-4.8.3-5.9 2.9-.1.2-.1.4-.2.7-.1.2-.1.4-.2.7-.3 0-.3.2-.4.4-.1.2-.1.5-.2.7.5.1 1 .3 1.5.4.5.1 1 .3 1.5.4.5.2 1 .3 1.5.5s1 .3 1.5.5c.3.1.5.2.8.2.3.1.5.2.7.2.3.1.5.2.8.2.2.1.5.2.7.3 2.7 1.2 3.7 3.2 3.2 6.2-.2.7-.4 1.5-.7 2.2-.2.7-.5 1.5-.7 2.2-.2.7-.5 1.5-.7 2.2-.2.7-.5 1.5-.7 2.2.2.1.4.1.7.2.2.1.4.1.7.2.2.1.4.1.7.2.2.1.4.1.7.2 2.7.5 4.5-.5 5.6-3.1.1-.4.3-.8.4-1.3.1-.4.3-.8.4-1.3.1-.4.2-.8.4-1.3.1-.4.2-.8.4-1.3l.3-.9c.1-.3.2-.6.2-.9.1-.3.2-.6.2-.9.1-.3.2-.6.2-.9-.2-.1-.4-.2-.6-.2-.3.2-.5.1-.7.1zM101.7 22.9c-.2-.1-.4-.2-.5-.3-.2-.1-.4-.2-.5-.3-2.3-1.4-3.5-2.6-3.9-3.5v-.2-.2-.2-.2c-.5-.3-1.1-.5-1.6-.8-.5-.2-1.1-.5-1.6-.7-.6-.2-1.1-.4-1.7-.6-.6-.2-1.1-.4-1.7-.6-.1 0-.2-.1-.3-.1-.1 0-.2-.1-.3-.1-.1 0-.2-.1-.3-.1h-.5c-2.6-.7-4-.6-4.3.2v.8c.5.1.9.2 1.4.3.5.1.9.2 1.4.3.5.1.9.3 1.4.4.5.1.9.3 1.4.4.2.1.5.1.7.2.2.1.5.2.7.2.2.1.5.2.7.2.2.1.5.2.7.3 2.5 1.1 3.8 2.3 4 3.6 0 .3 0 .7-.1 1 0 .4-.1.7-.1 1.1 0 .4-.1.8-.1 1.2-.1.4-.1.8-.2 1.3l.6.3.6.3.6.3.6.3c2.4 1.1 3.7 1 4-.3 0-.4 0-.7.1-1.1v-1-.9-.8c-.2-.1-.3-.2-.5-.4-.3 0-.5-.1-.7-.3zM90.3 99.3c.2-.1.3-.1.5-.2l-.9.3c.2 0 .3 0 .4-.1zM92.9 98.3c-.6.3-1.2.5-1.9.7.7-.2 1.4-.4 1.9-.7zM95.3 97c.2-.1.3-.3.5-.5l.5-.5c.2-.2.3-.4.5-.6-.2.1-.3.1-.5.2s-.3.1-.5.2-.3.1-.5.2-.4.1-.5.2c-.8.2-3.2.9-2.5-.5.1-.1.1-.2.2-.3.1-.1.1-.2.2-.3.1-.1.1-.2.2-.3.1-.1.1-.2.2-.3l-1.8.3-1.8.3c-.6.1-1.3.1-1.9.2-.6 0-1.3.1-1.9.1-2.6.2-4.4.8-5.3 1.9-.1.1-.1.2-.2.3-.1.1-.1.2-.2.3-.1.1-.1.2-.2.2-.1.1-.1.2-.2.2h2c.7 0 1.3 0 2-.1.6 0 1.3-.1 1.9-.2.6-.1 1.3-.1 1.9-.2 2.3-.3 3.2-.1 2.8.5l-.5.5c-.2.2-.3.3-.5.4-.2.1-.3.2-.4.3-.1.1-.3.2-.4.3.2 0 .4-.1.6-.2.2-.1.4-.1.6-.2.2-.1.4-.1.6-.2h.1l.9-.3c.1 0 .2-.1.2-.1.6-.2 1.2-.5 1.9-.7.8-.4 1.5-.7 1.9-1-.2.1-.1 0 .1-.1zM106.6 74.1c-.1 0-.3 0-.4-.1-.1 0-.3 0-.4-.1-1.8-.5-2.4-1.8-1.8-4.1.1-.2.1-.4.2-.6.1-.2.1-.4.2-.6.1-.2.1-.4.2-.6.1-.2.1-.4.2-.6-.5-.1-1-.3-1.6-.4-.5-.2-1.1-.3-1.6-.5-.6-.2-1.1-.3-1.7-.5-.6-.2-1.2-.3-1.8-.5-2.5-.4-4.2.6-5.4 3.1-.1.2-.1.4-.2.6-.1.2-.1.4-.2.6-.1.2-.1.4-.2.6-.1.2-.1.4-.2.6.7.2 1.3.3 1.9.5.6.1 1.3.3 1.9.4.6.1 1.2.3 1.8.4.6.1 1.2.2 1.8.4 2.1.6 2.7 1.9 2.1 4.1-.2.5-.4 1.1-.6 1.6-.2.5-.4 1.1-.6 1.6l-.6 1.5L99 83h2c2-.3 3.4-1.3 4.4-3.1.2-.5.4-.9.6-1.4l.6-1.5.6-1.5.6-1.5h-.4c-.5.2-.7.2-.8.1zM114.3 44.6c-.1-.1-.2-.3-.3-.4-.1-.1-.2-.3-.3-.4-1.5-1.8-2.2-3.5-2.2-5.2v-.4-.4-.4-.4l-1.3-1.3c-.4-.4-.9-.8-1.4-1.3l-1.5-1.2-1.5-1.2c-2.1-1.3-3.3-1.2-3.8.5 0 .1 0 .3-.1.5 0 .1 0 .3-.1.5 0 .2 0 .3-.1.5 0 .2-.1.3-.1.5.6.3 1.2.7 1.7 1 .6.4 1.1.7 1.7 1.1.5.4 1.1.7 1.6 1.1.5.4 1 .8 1.5 1.1 1.8 1.6 2.6 3.3 2.4 5.4l-.3 1.5-.3 1.5c-.1.5-.2 1.1-.3 1.6-.1.5-.2 1.1-.4 1.7.1.1.3.2.4.3.1.1.3.2.4.3.1.1.3.2.4.3.1.1.3.2.4.3 2.1 1.3 2.7 0 3-1.1.1-.5.2-.9.3-1.4.1-.5.1-.9.2-1.3s.1-.9.2-1.3.1-.8.2-1.2c-.1-.1-.2-.3-.3-.4.1-.1 0-.2-.1-.4zM112.2 82.6c.1-.2.2-.4.4-.6.1-.2.2-.4.4-.7l-.3.3c-.1.1-.2.2-.3.2-.1.1-.2.2-.3.2-.1.1-.2.2-.3.2-.2.2-.5.4-.7.5-.6.3-.8 0-.4-.8 0-.1.1-.2.1-.3 0-.1.1-.2.1-.3 0-.1.1-.2.1-.3 0-.1.1-.2.1-.3-.3.2-.7.3-1 .5-.4.1-.7.3-1.1.4-.4.1-.8.3-1.2.4-.4.1-.8.2-1.3.3-1.8.6-3.2 1.6-4.1 3.2-.1.1-.1.3-.2.4-.1.1-.1.2-.2.4-.1.1-.1.2-.2.4-.1.1-.1.2-.2.4.5-.1 1-.3 1.5-.4.5-.1 1-.3 1.4-.4.5-.2.9-.3 1.3-.5s.9-.4 1.3-.5c.1-.1.3-.2.5-.2 1.5-.6 1.1.3 1 .6-.1.3-.3.5-.4.8-.1.2-.3.5-.4.7-.1.2-.3.5-.4.7-.1.2-.3.4-.4.6.1-.1.3-.2.4-.3.1-.1.3-.2.4-.3.1-.1.2-.2.4-.3.1-.1.2-.2.4-.3l1.6-1.6c.5-.6.9-1.1 1.4-1.7.1-.2.2-.3.3-.5.1-.4.2-.6.3-.9zM117.1 57.5c-.2-.3-.5-.6-.8-.9-.3-.3-.5-.6-.8-.9-1.2-1-2.2-.6-2.8 1.3 0 .2-.1.3-.1.5s-.1.3-.1.5-.1.3-.1.5-.1.3-.1.5c.4.2.7.5 1.1.7.3.2.7.5 1 .7.3.2.6.5.9.7.3.2.6.5.8.7 1.2 1.3 1 2.8.8 3.9-.1.4-.2.8-.4 1.2-.1.4-.2.8-.4 1.2-.1.4-.2.8-.4 1.2-.1.4-.3.8-.4 1.2.1 0 .2 0 .2.1.1 0 .1 0 .2.1h.4c1 0 1.4-.9 1.7-1.7.1-.2.1-.4.2-.6.1-.2.1-.4.2-.6.1-.2.1-.4.2-.6.1-.2.1-.4.2-.6 0-.1.1-.3.1-.4 0-.1.1-.3.1-.4 0-.1.1-.3.1-.4 0-.1.1-.3.1-.4 0-.1-.1-.1-.1-.2s-.1-.1-.1-.2-.1-.1-.1-.2-.1-.1-.1-.2c-.6-1-.7-2.2-.5-3.7 0-.1.1-.2.1-.4 0-.1.1-.2.1-.4 0-.1.1-.2.1-.4 0-.1.1-.2.1-.4l-.6-.9c-.3.1-.5-.2-.8-.5zM115.1 35.8V36.4l.9 1.5c.3.5.6 1 .8 1.6.2.3.3.6.4.9-.7-1.7-1.4-3.4-2.3-5v.1c.1.1.2.2.2.3zM119.6 48.7v1.5c0 .2.1.3.1.4 0 .1.1.3.1.4 0 .1.1.3.1.5 0 .1.1.3.1.4.1.3.1.5.2.7-.1-1.5-.4-3-.6-4.5v.6zM116.7 72.8c0 .1-.1.2-.1.3 0 .1-.1.2-.1.3 0 .1-.1.2-.1.3 0 .1-.1.2-.1.3.2-.1.3-.1.5-.2.1-.1.3-.1.4-.2.1 0 .1-.1.2-.1.3-.8.6-1.6.9-2.3h-.1c-.4-.1-.9.2-1.5 1.6z"/></g><g><path class="st5" d="M242 59.9l-42-54h-26.5v102.2h28.1V52l43.7 56.1H270V5.9h-28zM278.1 5.9h28.3V108h-28.3zM410.6 46.4C406.3 22.3 386.1 5.9 354 5.9h-39.5V108h38.9c32.4 0 52.8-17.1 57.2-41.4V108h28.3V5.9h-28.3v40.5zm-28 10.7c0 16.5-11.2 25.8-28.3 25.8h-11.5v-52h11.5c17.1 0 28.3 9.6 28.3 26v.2zM490.9 5.9H447V108h28.3V78.9h14.1c25.2 0 43.8-12.7 43.8-36.9v-.3c0-22.5-16.6-35.8-42.3-35.8zm14.2 37.4c0 8-6.3 13.4-16.2 13.4h-13.6v-27h13.4c10.1 0 16.3 4.5 16.3 13.3v.3z"/></g><g><path class="st5" d="M173.5 125h1.9l11.5 14.6V125h2v18.2h-1.6l-11.8-14.9v14.9h-2V125zM192.7 139.3c0-2.9 2.3-4.4 5.7-4.4 1.7 0 2.9.2 4.1.6v-.5c0-2.4-1.5-3.7-4-3.7-1.6 0-2.8.4-4.1 1l-.6-1.6c1.5-.7 2.9-1.1 4.9-1.1 1.9 0 3.4.5 4.3 1.5.9.9 1.4 2.2 1.4 3.9v8.2h-1.9v-2c-.9 1.2-2.5 2.3-4.9 2.3-2.3 0-4.9-1.4-4.9-4.2zm9.9-1V137c-1-.3-2.3-.6-4-.6-2.5 0-3.9 1.1-3.9 2.8v.1c0 1.7 1.6 2.7 3.4 2.7 2.5-.1 4.5-1.6 4.5-3.7zM209.4 139.6v-8.1h-1.9v-1.8h1.9v-4.1h2v4.1h4.3v1.8h-4.3v7.9c0 1.6.9 2.2 2.3 2.2.7 0 1.2-.1 2-.5v1.7c-.7.4-1.5.6-2.4.6-2.3 0-3.9-1-3.9-3.8zM219.2 124.6h2.3v2.2h-2.3v-2.2zm.2 5.2h2v13.4h-2v-13.4zM225.2 136.5c0-3.8 3-7.1 7-7.1s7 3.2 7 7v.1c0 3.8-3 7-7 7-4.1 0-7-3.2-7-7zm11.9 0c0-2.9-2.2-5.3-5-5.3-2.9 0-4.9 2.4-4.9 5.2v.1c0 2.9 2.1 5.2 5 5.2s4.9-2.3 4.9-5.2zM242.8 129.8h2v2.3c.9-1.5 2.3-2.6 4.6-2.6 3.3 0 5.1 2.2 5.1 5.4v8.3h-2v-7.9c0-2.5-1.4-4.1-3.7-4.1-2.3 0-4 1.7-4 4.2v7.7h-2v-13.3zM257.8 139.3c0-2.9 2.3-4.4 5.7-4.4 1.7 0 2.9.2 4.1.6v-.5c0-2.4-1.5-3.7-4-3.7-1.6 0-2.8.4-4.1 1l-.6-1.6c1.5-.7 2.9-1.1 4.9-1.1 1.9 0 3.4.5 4.3 1.5.9.9 1.4 2.2 1.4 3.9v8.2h-1.9v-2c-.9 1.2-2.5 2.3-4.9 2.3-2.4 0-4.9-1.4-4.9-4.2zm9.9-1V137c-1-.3-2.3-.6-4-.6-2.5 0-3.9 1.1-3.9 2.8v.1c0 1.7 1.6 2.7 3.4 2.7 2.5-.1 4.5-1.6 4.5-3.7zM274.1 124.2h2v19h-2v-19zM289 125h2.1v18.2H289V125zM296.3 124.2h2v19h-2v-19zM303.1 124.2h2v19h-2v-19zM309.8 124.6h2.3v2.2h-2.3v-2.2zm.1 5.2h2v13.4h-2v-13.4zM315.8 136.5c0-3.8 3-7.1 6.9-7.1 2.5 0 4.1 1.1 5.4 2.4l-1.3 1.4c-1.1-1.1-2.3-2-4.1-2-2.7 0-4.8 2.3-4.8 5.2v.1c0 2.9 2.1 5.2 4.9 5.2 1.7 0 3-.9 4.1-2l1.3 1.2c-1.4 1.5-3 2.6-5.5 2.6-4 0-6.9-3.2-6.9-7zM331.5 124.6h2.3v2.2h-2.3v-2.2zm.1 5.2h2v13.4h-2v-13.4zM339 139.6v-8.1h-1.9v-1.8h1.9v-4.1h2v4.1h4.3v1.8H341v7.9c0 1.6.9 2.2 2.3 2.2.7 0 1.2-.1 2-.5v1.7c-.7.4-1.5.6-2.4.6-2.3 0-3.9-1-3.9-3.8zM356.9 125h6.3c5.7 0 9.7 3.9 9.7 9v.1c0 5.1-4 9.1-9.7 9.1h-6.3V125zm2.1 1.9v14.4h4.3c4.6 0 7.5-3.1 7.5-7.2v-.1c0-4-2.9-7.2-7.5-7.2H359zM376.9 129.8h2v3.5c1-2.2 2.9-3.8 5.5-3.7v2.2h-.2c-2.9 0-5.3 2.1-5.3 6.2v5.4h-2v-13.6zM387.2 138.1v-8.3h2v7.9c0 2.5 1.4 4.1 3.7 4.1 2.3 0 4-1.7 4-4.2v-7.7h2v13.4h-2V141c-.9 1.5-2.3 2.6-4.6 2.6-3.2-.1-5.1-2.3-5.1-5.5zM403.3 145.5l.9-1.6c1.5 1.1 3.3 1.7 5.2 1.7 3 0 4.9-1.6 4.9-4.8v-1.6c-1.2 1.6-2.8 2.8-5.3 2.8-3.2 0-6.3-2.4-6.3-6.3v-.1c0-3.9 3.1-6.3 6.3-6.3 2.5 0 4.2 1.2 5.3 2.7v-2.4h2v11.1c0 2.1-.6 3.7-1.7 4.8-1.2 1.2-3 1.8-5.1 1.8-2.3.1-4.4-.5-6.2-1.8zm11-9.7c0-2.8-2.4-4.6-4.9-4.6-2.5 0-4.7 1.8-4.7 4.5v.1c0 2.7 2.2 4.6 4.7 4.6s4.9-1.9 4.9-4.6z"/></g><g><path class="st5" d="M173.6 153h2.1v18.2h-2.1V153zM180.6 157.8h2v2.3c.9-1.5 2.3-2.6 4.6-2.6 3.3 0 5.1 2.2 5.1 5.4v8.3h-2v-7.9c0-2.5-1.4-4.1-3.7-4.1-2.3 0-4 1.7-4 4.2v7.7h-2v-13.3zM195.8 164.5c0-4.4 3.2-7 6.4-7 2.5 0 4.1 1.4 5.1 2.9v-8.1h2v19h-2v-2.7c-1.1 1.6-2.7 3-5.1 3-3.2-.1-6.4-2.7-6.4-7.1zm11.7 0c0-3.1-2.4-5.2-4.9-5.2-2.6 0-4.7 1.9-4.7 5.2v.1c0 3.2 2.2 5.2 4.7 5.2 2.5-.1 4.9-2.2 4.9-5.3zM213.9 152.6h2.3v2.2h-2.3v-2.2zm.2 5.2h2v13.4h-2v-13.4zM219.9 164.5c0-3.8 3-7.1 6.9-7.1 2.5 0 4.1 1.1 5.4 2.4l-1.3 1.4c-1.1-1.1-2.3-2-4.1-2-2.7 0-4.8 2.3-4.8 5.2v.1c0 2.9 2.1 5.2 4.9 5.2 1.7 0 3-.9 4.1-2l1.3 1.2c-1.4 1.5-3 2.6-5.5 2.6-4 0-6.9-3.2-6.9-7zM234.5 167.3c0-2.9 2.3-4.4 5.7-4.4 1.7 0 2.9.2 4.1.6v-.5c0-2.4-1.5-3.7-4-3.7-1.6 0-2.8.4-4.1 1l-.6-1.6c1.5-.7 2.9-1.1 4.9-1.1 1.9 0 3.4.5 4.3 1.5.9.9 1.4 2.2 1.4 3.9v8.2h-1.9v-2c-.9 1.2-2.5 2.3-4.9 2.3-2.3 0-4.9-1.4-4.9-4.2zm10-1V165c-1-.3-2.3-.6-4-.6-2.5 0-3.9 1.1-3.9 2.8v.1c0 1.7 1.6 2.7 3.4 2.7 2.4-.1 4.5-1.6 4.5-3.7zM251.2 167.6v-8.1h-1.9v-1.8h1.9v-4.1h2v4.1h4.3v1.8h-4.3v7.9c0 1.6.9 2.2 2.3 2.2.7 0 1.2-.1 2-.5v1.7c-.7.4-1.5.6-2.4.6-2.3 0-3.9-1-3.9-3.8zM259.8 164.5c0-3.8 3-7.1 7-7.1s7 3.2 7 7v.1c0 3.8-3 7-7 7-4.1 0-7-3.2-7-7zm11.9 0c0-2.9-2.2-5.3-5-5.3-2.9 0-4.9 2.4-4.9 5.2v.1c0 2.9 2.1 5.2 5 5.2s4.9-2.3 4.9-5.2zM277.4 157.8h2v3.5c1-2.2 2.9-3.8 5.5-3.7v2.2h-.2c-2.9 0-5.3 2.1-5.3 6.2v5.4h-2v-13.6zM286.8 169.5l1-1.4c1.5 1.1 3.1 1.7 4.7 1.7s2.8-.8 2.8-2.1v-.1c0-1.4-1.6-1.9-3.4-2.4-2.1-.6-4.4-1.3-4.4-3.8v-.1c0-2.3 1.9-3.8 4.6-3.8 1.6 0 3.5.6 4.8 1.5l-.9 1.5c-1.2-.8-2.7-1.3-4-1.3-1.6 0-2.6.8-2.6 1.9v.1c0 1.3 1.7 1.8 3.5 2.3 2.1.6 4.3 1.4 4.3 3.8v.1c0 2.5-2.1 4-4.8 4-2 .1-4.1-.7-5.6-1.9zM309 153h6.8c4.1 0 6.8 2.2 6.8 5.8v.1c0 3.9-3.3 6-7.2 6H311v6.4h-2V153zm6.6 9.9c3 0 5-1.6 5-4v-.1c0-2.6-1.9-4-4.9-4h-4.6v8h4.5zM326 157.8h2v3.5c1-2.2 2.9-3.8 5.5-3.7v2.2h-.2c-2.9 0-5.3 2.1-5.3 6.2v5.4h-2v-13.6zM335.2 164.5c0-3.8 3-7.1 7-7.1s7 3.2 7 7v.1c0 3.8-3 7-7 7-4.1 0-7-3.2-7-7zm11.9 0c0-2.9-2.2-5.3-5-5.3-2.9 0-4.9 2.4-4.9 5.2v.1c0 2.9 2.1 5.2 5 5.2s4.9-2.3 4.9-5.2zM350.5 175.3v-1.6c.3.1.7.1 1 .1.9 0 1.5-.5 1.5-1.8v-14.2h2V172c0 2.4-1.2 3.5-3.3 3.5-.5-.1-.8-.1-1.2-.2zm2.3-22.7h2.3v2.2h-2.3v-2.2zM358.8 164.5c0-3.9 2.7-7 6.4-7 4 0 6.3 3.2 6.3 7.1v.7h-10.7c.3 2.9 2.3 4.5 4.7 4.5 1.8 0 3.1-.8 4.2-1.9l1.2 1.1c-1.4 1.5-3 2.5-5.5 2.5-3.6 0-6.6-2.8-6.6-7zm10.7-.8c-.2-2.4-1.6-4.6-4.3-4.6-2.3 0-4.1 2-4.4 4.6h8.7zM374.2 164.5c0-3.8 3-7.1 6.9-7.1 2.5 0 4.1 1.1 5.4 2.4l-1.3 1.4c-1.1-1.1-2.3-2-4.1-2-2.7 0-4.8 2.3-4.8 5.2v.1c0 2.9 2.1 5.2 4.9 5.2 1.7 0 3-.9 4.1-2l1.3 1.2c-1.4 1.5-3 2.6-5.5 2.6-3.9 0-6.9-3.2-6.9-7zM390.6 167.6v-8.1h-1.9v-1.8h1.9v-4.1h2v4.1h4.3v1.8h-4.3v7.9c0 1.6.9 2.2 2.3 2.2.7 0 1.2-.1 2-.5v1.7c-.7.4-1.5.6-2.4.6-2.3 0-3.9-1-3.9-3.8z"/></g></svg>